<svg width="38" height="38" viewBox="0 0 38 38" fill="none" xmlns="http://www.w3.org/2000/svg">
<path d="M5.29916 34.1647H32.7006C36.0086 34.1647 37.6948 32.5103 37.6948 29.2342V12.5827C37.6948 9.30659 36.0086 7.66852 32.7006 7.66852H28.9793C27.7388 7.66852 27.3575 7.41405 26.6416 6.61877L25.353 5.18698C24.574 4.31298 23.7631 3.83527 22.1087 3.83527H15.779C14.1409 3.83527 13.3294 4.31298 12.5348 5.18698L11.2462 6.61877C10.5466 7.39777 10.1489 7.66852 8.90848 7.66852H5.29848C1.99045 7.66852 0.304199 9.30659 0.304199 12.5827V29.2342C0.304199 32.5103 1.99113 34.1647 5.29916 34.1647ZM18.9921 29.0754C14.1884 29.0754 10.324 25.2103 10.324 20.3761C10.324 15.5406 14.1884 11.6768 18.9914 11.6768C23.8262 11.6768 27.6751 15.5406 27.6751 20.3761C27.6751 25.2103 23.8106 29.0754 18.9914 29.0754M30.426 16.4947C29.3443 16.4947 28.4541 15.6207 28.4541 14.5391C28.4541 14.0161 28.6618 13.5145 29.0316 13.1447C29.4014 12.7749 29.903 12.5671 30.426 12.5671C30.949 12.5671 31.4505 12.7749 31.8203 13.1447C32.1902 13.5145 32.3979 14.0161 32.3979 14.5391C32.3979 15.6207 31.5076 16.4947 30.426 16.4947ZM18.9921 26.6583C19.8173 26.6593 20.6347 26.4975 21.3973 26.1821C22.16 25.8668 22.8529 25.4041 23.4364 24.8205C24.02 24.237 24.4827 23.544 24.7981 22.7814C25.1134 22.0187 25.2752 21.2014 25.2743 20.3761C25.2752 19.5509 25.1133 18.7336 24.7979 17.9711C24.4825 17.2085 24.0197 16.5157 23.4362 15.9322C22.8527 15.3487 22.1598 14.886 21.3972 14.5707C20.6346 14.2554 19.8173 14.0936 18.9921 14.0946C15.5246 14.0946 12.7261 16.8937 12.7261 20.3761C12.7261 23.8592 15.5408 26.6583 18.9921 26.6583Z" fill="white"/>
</svg>
